999
dxfrw 0.6.3
  0
SECTION
  2
HEADER
  9
$ACADVER
  1
AC1021
  9
$DWGCODEPAGE
  3
ANSI_1250
  9
$INSBASE
 10
0
 20
0
 30
0
  9
$EXTMIN
 10
-360
 20
-110
 30
0
  9
$EXTMAX
 10
180
 20
110
 30
0
  9
$LIMMIN
 10
0
 20
0
  9
$LIMMAX
 10
420
 20
297
  9
$ORTHOMODE
 70
    0
  9
$REGENMODE
 70
    1
  9
$FILLMODE
 70
    1
  9
$QTEXTMODE
 70
    0
  9
$MIRRTEXT
 70
    0
  9
$LTSCALE
 40
1
  9
$ATTMODE
 70
    0
  9
$TEXTSIZE
 40
2.5
  9
$TRACEWID
 40
15.68
  9
$TEXTSTYLE
  7
STANDARD
  9
$CLAYER
  8
measure
  9
$CELTYPE
  6
BYLAYER
  9
$CECOLOR
 62
  256
  9
$CELTSCALE
 40
1
  9
$DISPSILH
 70
    0
  9
$DIMSCALE
 40
2.5
  9
$DIMASZ
 40
2.5
  9
$DIMEXO
 40
0.625
  9
$DIMDLI
 40
3.75
  9
$DIMRND
 40
0
  9
$DIMDLE
 40
0
  9
$DIMEXE
 40
1.25
  9
$DIMTP
 40
0
  9
$DIMTM
 40
0
  9
$DIMTXT
 40
2.5
  9
$DIMCEN
 40
2.5
  9
$DIMTSZ
 40
0
  9
$DIMTOL
 70
    0
  9
$DIMLIM
 70
    0
  9
$DIMTIH
 70
    0
  9
$DIMTOH
 70
    0
  9
$DIMSE1
 70
    0
  9
$DIMSE2
 70
    0
  9
$DIMTAD
 70
    1
  9
$DIMZIN
 70
    8
  9
$DIMBLK
  1

  9
$DIMASO
 70
    1
  9
$DIMSHO
 70
    1
  9
$DIMPOST
  1

  9
$DIMAPOST
  1

  9
$DIMALT
 70
    0
  9
$DIMALTD
 70
    3
  9
$DIMALTF
 40
0.03937
  9
$DIMLFAC
 40
1
  9
$DIMTOFL
 70
    1
  9
$DIMTVP
 40
0
  9
$DIMTIX
 70
    0
  9
$DIMSOXD
 70
    0
  9
$DIMSAH
 70
    0
  9
$DIMBLK1
  1

  9
$DIMBLK2
  1

  9
$DIMSTYLE
  2
STANDARD
  9
$DIMCLRD
 70
    0
  9
$DIMCLRE
 70
    0
  9
$DIMCLRT
 70
    0
  9
$DIMTFAC
 40
1
  9
$DIMGAP
 40
0.625
  9
$DIMJUST
 70
    0
  9
$DIMSD1
 70
    0
  9
$DIMSD2
 70
    0
  9
$DIMTOLJ
 70
    0
  9
$DIMTZIN
 70
    8
  9
$DIMALTZ
 70
    0
  9
$DIMALTTZ
 70
    0
  9
$DIMUPT
 70
    0
  9
$DIMDEC
 70
    2
  9
$DIMTDEC
 70
    2
  9
$DIMALTU
 70
    2
  9
$DIMALTTD
 70
    3
  9
$DIMTXSTY
  7
STANDARD
  9
$DIMAUNIT
 70
    0
  9
$DIMADEC
 70
    0
  9
$DIMALTRND
 40
0
  9
$DIMAZIN
 70
    0
  9
$DIMDSEP
 70
   44
  9
$DIMATFIT
 70
    3
  9
$DIMFRAC
 70
    0
  9
$DIMLDRBLK
  1
STANDARD
  9
$DIMLUNIT
 70
    2
  9
$DIMLWD
 70
   -2
  9
$DIMLWE
 70
   -2
  9
$DIMTMOVE
 70
    0
  9
$DIMFXL
 40
1
  9
$DIMFXLON
 70
    0
  9
$DIMJOGANG
 40
0.7854
  9
$DIMTFILL
 70
    0
  9
$DIMTFILLCLR
 70
    0
  9
$DIMARCSYM
 70
    0
  9
$DIMLTYPE
  6

  9
$DIMLTEX1
  6

  9
$DIMLTEX2
  6

  9
$LUNITS
 70
    2
  9
$LUPREC
 70
    4
  9
$SKETCHINC
 40
1
  9
$FILLETRAD
 40
0
  9
$AUNITS
 70
    0
  9
$AUPREC
 70
    2
  9
$MENU
  1
.
  9
$ELEVATION
 40
0
  9
$PELEVATION
 40
0
  9
$THICKNESS
 40
0
  9
$LIMCHECK
 70
    0
  9
$CHAMFERA
 40
0
  9
$CHAMFERB
 40
0
  9
$CHAMFERC
 40
0
  9
$CHAMFERD
 40
0
  9
$SKPOLY
 70
    0
  9
$USRTIMER
 70
    1
  9
$ANGBASE
 50
0
  9
$ANGDIR
 70
    0
  9
$PDMODE
 70
   34
  9
$PDSIZE
 40
0
  9
$PLINEWID
 40
0
  9
$SPLFRAME
 70
    0
  9
$SPLINETYPE
 70
    2
  9
$SPLINESEGS
 70
    8
  9
$HANDSEED
  5
20000
  9
$SURFTAB1
 70
    6
  9
$SURFTAB2
 70
    6
  9
$SURFTYPE
 70
    6
  9
$SURFU
 70
    6
  9
$SURFV
 70
    6
  9
$UCSBASE
  2

  9
$UCSNAME
  2

  9
$UCSORG
 10
0
 20
0
 30
0
  9
$UCSXDIR
 10
1
 20
0
 30
0
  9
$UCSYDIR
 10
0
 20
1
 30
0
  9
$UCSORTHOREF
  2

  9
$UCSORTHOVIEW
 70
    0
  9
$UCSORGTOP
 10
0
 20
0
 30
0
  9
$UCSORGBOTTOM
 10
0
 20
0
 30
0
  9
$UCSORGLEFT
 10
0
 20
0
 30
0
  9
$UCSORGRIGHT
 10
0
 20
0
 30
0
  9
$UCSORGFRONT
 10
0
 20
0
 30
0
  9
$UCSORGBACK
 10
0
 20
0
 30
0
  9
$PUCSBASE
  2

  9
$PUCSNAME
  2

  9
$PUCSORG
 10
0
 20
0
 30
0
  9
$PUCSXDIR
 10
1
 20
0
 30
0
  9
$PUCSYDIR
 10
0
 20
1
 30
0
  9
$PUCSORTHOREF
  2

  9
$PUCSORTHOVIEW
 70
    0
  9
$PUCSORGTOP
 10
0
 20
0
 30
0
  9
$PUCSORGBOTTOM
 10
0
 20
0
 30
0
  9
$PUCSORGLEFT
 10
0
 20
0
 30
0
  9
$PUCSORGRIGHT
 10
0
 20
0
 30
0
  9
$PUCSORGFRONT
 10
0
 20
0
 30
0
  9
$PUCSORGBACK
 10
0
 20
0
 30
0
  9
$USERI1
 70
    0
  9
$USERI2
 70
    0
  9
$USERI3
 70
    0
  9
$USERI4
 70
    0
  9
$USERI5
 70
    0
  9
$USERR1
 40
0
  9
$USERR2
 40
0
  9
$USERR3
 40
0
  9
$USERR4
 40
0
  9
$USERR5
 40
0
  9
$WORLDVIEW
 70
    1
  9
$SHADEDGE
 70
    3
  9
$SHADEDIF
 70
   70
  9
$TILEMODE
 70
    1
  9
$MAXACTVP
 70
   64
  9
$PINSBASE
 10
0
 20
0
 30
0
  9
$PLIMCHECK
 70
    0
  9
$PEXTMIN
 10
0
 20
0
 30
0
  9
$PEXTMAX
 10
0
 20
0
 30
0
  9
$GRIDMODE
 70
    1
  9
$SNAPSTYLE
 70
    0
  9
$PLIMMIN
 10
0
 20
0
  9
$PLIMMAX
 10
0.4724377648
 20
0.3543283235999999
  9
$UNITMODE
 70
    0
  9
$VISRETAIN
 70
    1
  9
$PLINEGEN
 70
    0
  9
$PSLTSCALE
 70
    1
  9
$TREEDEPTH
 70
 3020
  9
$CMLSTYLE
  2
Standard
  9
$CMLJUST
 70
    0
  9
$CMLSCALE
 40
20
  9
$PROXYGRAPHICS
 70
    1
  9
$MEASUREMENT
 70
    1
  9
$CELWEIGHT
370
   -1
  9
$ENDCAPS
280
    0
  9
$JOINSTYLE
280
    0
  9
$LWDISPLAY
290
    0
  9
$INSUNITS
 70
    0
  9
$HYPERLINKBASE
  1

  9
$STYLESHEET
  1

  9
$XEDIT
290
    1
  9
$CEPSNTYPE
380
    0
  9
$PSTYLEMODE
290
    1
  9
$EXTNAMES
290
    1
  9
$PSVPSCALE
 40
1
  9
$OLESTARTUP
290
    0
  9
$SORTENTS
280
  127
  9
$INDEXCTL
280
    0
  9
$HIDETEXT
280
    1
  9
$XCLIPFRAME
290
    0
  9
$HALOGAP
280
    0
  9
$OBSCOLOR
 70
  257
  9
$OBSLTYPE
280
    0
  9
$INTERSECTIONDISPLAY
280
    0
  9
$INTERSECTIONCOLOR
 70
  257
  9
$DIMASSOC
280
    1
  9
$PROJECTNAME
  1

  9
$CAMERADISPLAY
290
    0
  9
$LENSLENGTH
 40
50
  9
$CAMERAHEIGHT
 40
0
  9
$STEPSPERSEC
 40
2
  9
$STEPSIZE
 40
50
  9
$3DDWFPREC
 40
2
  9
$PSOLWIDTH
 40
5
  9
$PSOLHEIGHT
 40
80
  9
$LOFTANG1
 40
1.570796326794897
  9
$LOFTANG2
 40
1.570796326794897
  9
$LOFTMAG1
 40
0
  9
$LOFTMAG2
 40
0
  9
$LOFTPARAM
 70
    7
  9
$LOFTNORMALS
280
    1
  9
$LATITUDE
 40
1
  9
$LONGITUDE
 40
1
  9
$NORTHDIRECTION
 40
0
  9
$TIMEZONE
 70
-8000
  9
$LIGHTGLYPHDISPLAY
280
    1
  9
$TILEMODELIGHTSYNCH
280
    1
  9
$SOLIDHIST
280
    1
  9
$SHOWHIST
280
    1
  9
$DWFFRAME
280
    2
  9
$DGNFRAME
280
    0
  9
$REALWORLDSCALE
290
    1
  9
$INTERFERECOLOR
 62
    1
  9
$CSHADOW
280
    0
  9
$SHADOWPLANELOCATION
 40
0
  0
ENDSEC
  0
SECTION
  2
CLASSES
  0
ENDSEC
  0
SECTION
  2
TABLES
  0
TABLE
  2
VPORT
  5
8
330
0
100
AcDbSymbolTable
 70
    1
  0
VPORT
  5
31
330
2
100
AcDbSymbolTableRecord
100
AcDbViewportTableRecord
  2
*ACTIVE
 70
    0
 10
0
 20
0
 11
1
 21
1
 12
132.6941899142714
 22
81.66966187273781
 13
0
 23
0
 14
10
 24
10
 15
10
 25
10
 16
0
 26
0
 36
1
 17
0
 27
0
 37
0
 40
291.2428351700054
 41
1.759791122715405
 42
50
 43
0
 44
0
 50
0
 51
0
 71
    0
 72
  100
 73
    1
 74
    3
 75
    0
 76
    1
 77
    0
 78
    0
281
    0
 65
    1
110
0
120
0
130
0
111
1
121
0
131
0
112
0
122
1
132
0
 79
    0
146
0
348
10020
 60
    7
 61
    5
292
1
282
    1
141
0
142
0
 63
  250
421
3358443
  0
ENDTAB
  0
TABLE
  2
LTYPE
  5
5
330
0
100
AcDbSymbolTable
 70
    4
  0
LTYPE
  5
14
330
5
100
AcDbSymbolTableRecord
100
AcDbLinetypeTableRecord
  2
ByBlock
 70
    0
  3

 72
   65
 73
    0
 40
0
  0
LTYPE
  5
15
330
5
100
AcDbSymbolTableRecord
100
AcDbLinetypeTableRecord
  2
ByLayer
 70
    0
  3

 72
   65
 73
    0
 40
0
  0
LTYPE
  5
16
330
5
100
AcDbSymbolTableRecord
100
AcDbLinetypeTableRecord
  2
Continuous
 70
    0
  3
Solid line
 72
   65
 73
    0
 40
0
  0
LTYPE
  5
32
330
5
100
AcDbSymbolTableRecord
100
AcDbLinetypeTableRecord
  2
DOT
 70
    0
  3
Dot . . . . . . . . . . . . . . . . . . . . . .
 72
   65
 73
    2
 40
6.35
 49
0
 74
    0
 49
-6.35
 74
    0
  0
LTYPE
  5
33
330
5
100
AcDbSymbolTableRecord
100
AcDbLinetypeTableRecord
  2
DOTTINY
 70
    0
  3
Dot (.15x) .....................................
 72
   65
 73
    2
 40
0.9525
 49
0
 74
    0
 49
-0.9525
 74
    0
  0
LTYPE
  5
34
330
5
100
AcDbSymbolTableRecord
100
AcDbLinetypeTableRecord
  2
DOT2
 70
    0
  3
Dot (.5x) .....................................
 72
   65
 73
    2
 40
3.175
 49
0
 74
    0
 49
-3.175
 74
    0
  0
LTYPE
  5
35
330
5
100
AcDbSymbolTableRecord
100
AcDbLinetypeTableRecord
  2
DOTX2
 70
    0
  3
Dot (2x) .  .  .  .  .  .  .  .  .  .  .  .  .
 72
   65
 73
    2
 40
12.7
 49
0
 74
    0
 49
-12.7
 74
    0
  0
LTYPE
  5
36
330
5
100
AcDbSymbolTableRecord
100
AcDbLinetypeTableRecord
  2
DASHED
 70
    0
  3
Dashed _ _ _ _ _ _ _ _ _ _ _ _ _ _ _ _ _
 72
   65
 73
    2
 40
19.05
 49
12.7
 74
    0
 49
-6.35
 74
    0
  0
LTYPE
  5
37
330
5
100
AcDbSymbolTableRecord
100
AcDbLinetypeTableRecord
  2
DASHEDTINY
 70
    0
  3
Dashed (.15x) _ _ _ _ _ _ _ _ _ _ _ _ _ _ _ _ _
 72
   65
 73
    2
 40
2.8575
 49
1.905
 74
    0
 49
-0.9525
 74
    0
  0
LTYPE
  5
38
330
5
100
AcDbSymbolTableRecord
100
AcDbLinetypeTableRecord
  2
DASHED2
 70
    0
  3
Dashed (.5x) _ _ _ _ _ _ _ _ _ _ _ _ _ _ _ _ _
 72
   65
 73
    2
 40
9.524999999999999
 49
6.35
 74
    0
 49
-3.175
 74
    0
  0
LTYPE
  5
39
330
5
100
AcDbSymbolTableRecord
100
AcDbLinetypeTableRecord
  2
DASHEDX2
 70
    0
  3
Dashed (2x) ____  ____  ____  ____  ____  ___
 72
   65
 73
    2
 40
38.09999999999999
 49
25.4
 74
    0
 49
-12.7
 74
    0
  0
LTYPE
  5
3A
330
5
100
AcDbSymbolTableRecord
100
AcDbLinetypeTableRecord
  2
DASHDOT
 70
    0
  3
Dash dot __ . __ . __ . __ . __ . __ . __ . __
 72
   65
 73
    4
 40
25.4
 49
12.7
 74
    0
 49
-6.35
 74
    0
 49
0
 74
    0
 49
-6.35
 74
    0
  0
LTYPE
  5
3B
330
5
100
AcDbSymbolTableRecord
100
AcDbLinetypeTableRecord
  2
DASHDOTTINY
 70
    0
  3
Dash dot (.15x) _._._._._._._._._._._._._._._.
 72
   65
 73
    4
 40
3.81
 49
1.905
 74
    0
 49
-0.9525
 74
    0
 49
0
 74
    0
 49
-0.9525
 74
    0
  0
LTYPE
  5
3C
330
5
100
AcDbSymbolTableRecord
100
AcDbLinetypeTableRecord
  2
DASHDOT2
 70
    0
  3
Dash dot (.5x) _._._._._._._._._._._._._._._.
 72
   65
 73
    4
 40
12.7
 49
6.35
 74
    0
 49
-3.175
 74
    0
 49
0
 74
    0
 49
-3.175
 74
    0
  0
LTYPE
  5
3D
330
5
100
AcDbSymbolTableRecord
100
AcDbLinetypeTableRecord
  2
DASHDOTX2
 70
    0
  3
Dash dot (2x) ____  .  ____  .  ____  .  ___
 72
   65
 73
    4
 40
50.8
 49
25.4
 74
    0
 49
-12.7
 74
    0
 49
0
 74
    0
 49
-12.7
 74
    0
  0
LTYPE
  5
3E
330
5
100
AcDbSymbolTableRecord
100
AcDbLinetypeTableRecord
  2
DIVIDE
 70
    0
  3
Divide ____ . . ____ . . ____ . . ____ . . ____
 72
   65
 73
    6
 40
31.75
 49
12.7
 74
    0
 49
-6.35
 74
    0
 49
0
 74
    0
 49
-6.35
 74
    0
 49
0
 74
    0
 49
-6.35
 74
    0
  0
LTYPE
  5
3F
330
5
100
AcDbSymbolTableRecord
100
AcDbLinetypeTableRecord
  2
DIVIDETINY
 70
    0
  3
Divide (.15x) __..__..__..__..__..__..__..__.._
 72
   65
 73
    6
 40
4.7625
 49
1.905
 74
    0
 49
-0.9525
 74
    0
 49
0
 74
    0
 49
-0.9525
 74
    0
 49
0
 74
    0
 49
-0.9525
 74
    0
  0
LTYPE
  5
40
330
5
100
AcDbSymbolTableRecord
100
AcDbLinetypeTableRecord
  2
DIVIDE2
 70
    0
  3
Divide (.5x) __..__..__..__..__..__..__..__.._
 72
   65
 73
    6
 40
15.875
 49
6.35
 74
    0
 49
-3.175
 74
    0
 49
0
 74
    0
 49
-3.175
 74
    0
 49
0
 74
    0
 49
-3.175
 74
    0
  0
LTYPE
  5
41
330
5
100
AcDbSymbolTableRecord
100
AcDbLinetypeTableRecord
  2
DIVIDEX2
 70
    0
  3
Divide (2x) ________  .  .  ________  .  .  _
 72
   65
 73
    6
 40
63.5
 49
25.4
 74
    0
 49
-12.7
 74
    0
 49
0
 74
    0
 49
-12.7
 74
    0
 49
0
 74
    0
 49
-12.7
 74
    0
  0
LTYPE
  5
42
330
5
100
AcDbSymbolTableRecord
100
AcDbLinetypeTableRecord
  2
BORDER
 70
    0
  3
Border __ __ . __ __ . __ __ . __ __ . __ __ .
 72
   65
 73
    6
 40
44.45
 49
12.7
 74
    0
 49
-6.35
 74
    0
 49
12.7
 74
    0
 49
-6.35
 74
    0
 49
0
 74
    0
 49
-6.35
 74
    0
  0
LTYPE
  5
43
330
5
100
AcDbSymbolTableRecord
100
AcDbLinetypeTableRecord
  2
BORDERTINY
 70
    0
  3
Border (.15x) __.__.__.__.__.__.__.__.__.__.__.
 72
   65
 73
    6
 40
6.6675
 49
1.905
 74
    0
 49
-0.9525
 74
    0
 49
1.905
 74
    0
 49
-0.9525
 74
    0
 49
0
 74
    0
 49
-0.9525
 74
    0
  0
LTYPE
  5
44
330
5
100
AcDbSymbolTableRecord
100
AcDbLinetypeTableRecord
  2
BORDER2
 70
    0
  3
Border (.5x) __.__.__.__.__.__.__.__.__.__.__.
 72
   65
 73
    6
 40
22.225
 49
6.35
 74
    0
 49
-3.175
 74
    0
 49
6.35
 74
    0
 49
-3.175
 74
    0
 49
0
 74
    0
 49
-3.175
 74
    0
  0
LTYPE
  5
45
330
5
100
AcDbSymbolTableRecord
100
AcDbLinetypeTableRecord
  2
BORDERX2
 70
    0
  3
Border (2x) ____  ____  .  ____  ____  .  ___
 72
   65
 73
    6
 40
88.89999999999999
 49
25.4
 74
    0
 49
-12.7
 74
    0
 49
25.4
 74
    0
 49
-12.7
 74
    0
 49
0
 74
    0
 49
-12.7
 74
    0
  0
LTYPE
  5
46
330
5
100
AcDbSymbolTableRecord
100
AcDbLinetypeTableRecord
  2
CENTER
 70
    0
  3
Center ____ _ ____ _ ____ _ ____ _ ____ _ ____
 72
   65
 73
    4
 40
50.8
 49
31.75
 74
    0
 49
-6.35
 74
    0
 49
6.35
 74
    0
 49
-6.35
 74
    0
  0
LTYPE
  5
47
330
5
100
AcDbSymbolTableRecord
100
AcDbLinetypeTableRecord
  2
CENTERTINY
 70
    0
  3
Center (.15x) ___ _ ___ _ ___ _ ___ _ ___ _ ___
 72
   65
 73
    4
 40
7.619999999999999
 49
4.7625
 74
    0
 49
-0.9525
 74
    0
 49
0.9525
 74
    0
 49
-0.9525
 74
    0
  0
LTYPE
  5
48
330
5
100
AcDbSymbolTableRecord
100
AcDbLinetypeTableRecord
  2
CENTER2
 70
    0
  3
Center (.5x) ___ _ ___ _ ___ _ ___ _ ___ _ ___
 72
   65
 73
    4
 40
28.575
 49
19.05
 74
    0
 49
-3.175
 74
    0
 49
3.175
 74
    0
 49
-3.175
 74
    0
  0
LTYPE
  5
49
330
5
100
AcDbSymbolTableRecord
100
AcDbLinetypeTableRecord
  2
CENTERX2
 70
    0
  3
Center (2x) ________  __  ________  __  _____
 72
   65
 73
    4
 40
101.6
 49
63.5
 74
    0
 49
-12.7
 74
    0
 49
12.7
 74
    0
 49
-12.7
 74
    0
  0
ENDTAB
  0
TABLE
  2
LAYER
  5
2
330
0
100
AcDbSymbolTable
 70
    1
  0
LAYER
  5
10
330
2
100
AcDbSymbolTableRecord
100
AcDbLayerTableRecord
  2
0
 70
    1
 62
    7
  6
CONTINUOUS
370
    0
390
F
  0
LAYER
  5
4A
330
2
100
AcDbSymbolTableRecord
100
AcDbLayerTableRecord
  2
FIX
 70
    1
 62
    7
  6
CONTINUOUS
370
    0
390
F
  0
LAYER
  5
4B
330
2
100
AcDbSymbolTableRecord
100
AcDbLayerTableRecord
  2
L
 70
    1
 62
    7
  6
CONTINUOUS
370
    0
390
F
  0
LAYER
  5
4C
330
2
100
AcDbSymbolTableRecord
100
AcDbLayerTableRecord
  2
MiddleMount
 70
    1
 62
    7
  6
CONTINUOUS
370
    0
390
F
  0
LAYER
  5
4D
330
2
100
AcDbSymbolTableRecord
100
AcDbLayerTableRecord
  2
RingBottom
 70
    1
 62
    7
  6
CONTINUOUS
370
    0
390
F
  0
LAYER
  5
4E
330
2
100
AcDbSymbolTableRecord
100
AcDbLayerTableRecord
  2
RingTop
 70
    1
 62
    7
  6
CONTINUOUS
370
    0
390
F
  0
LAYER
  5
4F
330
2
100
AcDbSymbolTableRecord
100
AcDbLayerTableRecord
  2
SimpleMountpoint
 70
    1
 62
    7
  6
CONTINUOUS
370
    0
390
F
  0
LAYER
  5
50
330
2
100
AcDbSymbolTableRecord
100
AcDbLayerTableRecord
  2
T
 70
    1
 62
    7
  6
CONTINUOUS
370
    0
390
F
  0
LAYER
  5
51
330
2
100
AcDbSymbolTableRecord
100
AcDbLayerTableRecord
  2
T-HF
 70
    0
 62
    7
  6
CONTINUOUS
370
    0
390
F
  0
LAYER
  5
52
330
2
100
AcDbSymbolTableRecord
100
AcDbLayerTableRecord
  2
TopMountpoint
 70
    1
 62
    7
  6
CONTINUOUS
370
    0
390
F
  0
LAYER
  5
53
330
2
100
AcDbSymbolTableRecord
100
AcDbLayerTableRecord
  2
measure
 70
    0
 62
    5
  6
CONTINUOUS
370
    0
390
F
  0
ENDTAB
  0
TABLE
  2
STYLE
  5
3
330
0
100
AcDbSymbolTable
 70
    3
  0
STYLE
  5
54
330
2
100
AcDbSymbolTableRecord
100
AcDbTextStyleTableRecord
  2
Standard
 70
    0
 40
0
 41
1
 50
0
 71
    0
 42
1
  3
txt
  4

  0
ENDTAB
  0
TABLE
  2
VIEW
  5
6
330
0
100
AcDbSymbolTable
 70
    0
  0
ENDTAB
  0
TABLE
  2
UCS
  5
7
330
0
100
AcDbSymbolTable
 70
    0
  0
ENDTAB
  0
TABLE
  2
APPID
  5
9
330
0
100
AcDbSymbolTable
 70
    1
  0
APPID
  5
12
330
9
100
AcDbSymbolTableRecord
100
AcDbRegAppTableRecord
  2
ACAD
 70
    0
  0
APPID
  5
55
330
9
100
AcDbSymbolTableRecord
100
AcDbRegAppTableRecord
  2
LibreCad
 70
    0
  0
ENDTAB
  0
TABLE
  2
DIMSTYLE
  5
A
330
0
100
AcDbSymbolTable
 70
    1
100
AcDbDimStyleTable
 71
    1
  0
DIMSTYLE
105
56
330
A
100
AcDbSymbolTableRecord
100
AcDbDimStyleTableRecord
  2
Standard
 70
    0
 40
2.5
 41
2.5
 42
0.625
 43
0.38
 44
1.25
 45
0
 46
0
 47
0
 48
0
 49
1
140
2.5
141
0.09
142
0
143
25.4
144
1
145
0
146
1
147
0.625
148
0
 71
    0
 72
    0
 73
    0
 74
    1
 75
    0
 76
    0
 77
    0
 78
    8
 79
    0
170
    0
171
    2
172
    0
173
    0
174
    0
175
    0
176
    0
177
    0
178
    0
179
    0
271
    2
272
    4
273
    2
274
    2
275
    0
276
    0
277
    2
278
   44
279
    0
280
    0
281
    0
282
    0
283
    1
284
    0
285
    0
286
    0
288
    0
289
    3
340
STANDARD
341

371
   -2
372
   -2
  0
ENDTAB
  0
TABLE
  2
BLOCK_RECORD
  5
1
330
0
100
AcDbSymbolTable
 70
    2
  0
BLOCK_RECORD
  5
1F
330
1
100
AcDbSymbolTableRecord
100
AcDbBlockTableRecord
  2
*Model_Space
 70
    0
280
    1
281
    0
  0
BLOCK_RECORD
  5
1E
330
1
100
AcDbSymbolTableRecord
100
AcDbBlockTableRecord
  2
*Paper_Space
 70
    0
280
    1
281
    0
  0
BLOCK_RECORD
  5
57
330
1
100
AcDbSymbolTableRecord
100
AcDbBlockTableRecord
  2
*D9
 70
    0
280
    1
281
    0
  0
BLOCK_RECORD
  5
5A
330
1
100
AcDbSymbolTableRecord
100
AcDbBlockTableRecord
  2
*D10
 70
    0
280
    1
281
    0
  0
BLOCK_RECORD
  5
5D
330
1
100
AcDbSymbolTableRecord
100
AcDbBlockTableRecord
  2
*D3
 70
    0
280
    1
281
    0
  0
BLOCK_RECORD
  5
60
330
1
100
AcDbSymbolTableRecord
100
AcDbBlockTableRecord
  2
*D8
 70
    0
280
    1
281
    0
  0
BLOCK_RECORD
  5
63
330
1
100
AcDbSymbolTableRecord
100
AcDbBlockTableRecord
  2
*D2
 70
    0
280
    1
281
    0
  0
BLOCK_RECORD
  5
66
330
1
100
AcDbSymbolTableRecord
100
AcDbBlockTableRecord
  2
*D4
 70
    0
280
    1
281
    0
  0
BLOCK_RECORD
  5
69
330
1
100
AcDbSymbolTableRecord
100
AcDbBlockTableRecord
  2
*D11
 70
    0
280
    1
281
    0
  0
BLOCK_RECORD
  5
6C
330
1
100
AcDbSymbolTableRecord
100
AcDbBlockTableRecord
  2
*D6
 70
    0
280
    1
281
    0
  0
BLOCK_RECORD
  5
6F
330
1
100
AcDbSymbolTableRecord
100
AcDbBlockTableRecord
  2
*D1
 70
    0
280
    1
281
    0
  0
BLOCK_RECORD
  5
72
330
1
100
AcDbSymbolTableRecord
100
AcDbBlockTableRecord
  2
*D7
 70
    0
280
    1
281
    0
  0
BLOCK_RECORD
  5
75
330
1
100
AcDbSymbolTableRecord
100
AcDbBlockTableRecord
  2
*D5
 70
    0
280
    1
281
    0
  0
ENDTAB
  0
ENDSEC
  0
SECTION
  2
BLOCKS
  0
BLOCK
  5
20
330
1F
100
AcDbEntity
  8
0
100
AcDbBlockBegin
  2
*Model_Space
 70
    0
 10
0
 20
0
 30
0
  3
*Model_Space
  1

  0
ENDBLK
  5
21
330
1F
100
AcDbEntity
  8
0
100
AcDbBlockEnd
  0
BLOCK
  5
1C
330
1B
100
AcDbEntity
  8
0
100
AcDbBlockBegin
  2
*Paper_Space
 70
    0
 10
0
 20
0
 30
0
  3
*Paper_Space
  1

  0
ENDBLK
  5
1D
330
1F
100
AcDbEntity
  8
0
100
AcDbBlockEnd
  0
BLOCK
  5
58
330
57
100
AcDbEntity
  8
0
100
AcDbBlockBegin
  2
*D9
 70
    1
 10
0
 20
0
  3
*D9
  1

  0
SOLID
  5
78
100
AcDbEntity
  8
measure
  6
ByBlock
 62
    0
370
   -2
100
AcDbTrace
 10
69.04757466825006
 20
11.50792911137501
 30
0
 11
63.0537045847207
 21
9.453883798187343
 31
0
 12
62.71152070387764
 22
11.50698708324571
 32
0
 13
62.71152070387764
 23
11.50698708324571
 33
0
  0
LINE
  5
79
100
AcDbEntity
  8
measure
  6
ByBlock
 62
    0
370
   -2
100
AcDbLine
 10
0
 20
0
 11
69.04757466825006
 21
11.50792911137501
  0
MTEXT
  5
7A
100
AcDbEntity
  8
measure
  6
CONTINUOUS
 62
    0
370
   -2
100
AcDbMText
 10
33.75316708113117
 20
10.37768607365068
 30
0
 40
6.25
 41
7.638888888888888
 71
    5
 72
    1
  1
70
  7
STANDARD
210
0
220
0
230
1
 50
9.462322208025622
 73
    2
 44
1
  0
ENDBLK
  5
59
330
57
100
AcDbEntity
  8
0
100
AcDbBlockEnd
  0
BLOCK
  5
5B
330
5A
100
AcDbEntity
  8
0
100
AcDbBlockBegin
  2
*D10
 70
    1
 10
0
 20
0
  3
*D10
  1

  0
LINE
  5
7B
100
AcDbEntity
  8
measure
  6
ByBlock
 62
    0
370
   -2
100
AcDbLine
 10
-100
 20
-60
 11
100
 21
-60
  0
SOLID
  5
7C
100
AcDbEntity
  8
measure
  6
ByBlock
 62
    0
370
   -2
100
AcDbTrace
 10
-100
 20
-60
 30
0
 11
-93.75
 21
-58.9592883555679
 31
0
 12
-93.75
 22
-61.0407116444321
 32
0
 13
-93.75
 23
-61.0407116444321
 33
0
  0
SOLID
  5
7D
100
AcDbEntity
  8
measure
  6
ByBlock
 62
    0
370
   -2
100
AcDbTrace
 10
100
 20
-60
 30
0
 11
93.75
 21
-61.0407116444321
 31
0
 12
93.75
 22
-58.9592883555679
 32
0
 13
93.75
 23
-58.9592883555679
 33
0
  0
MTEXT
  5
7E
100
AcDbEntity
  8
measure
  6
CONTINUOUS
 62
    0
370
   -2
100
AcDbMText
 10
2.870265935501609e-16
 20
-55.3125
 30
0
 40
6.25
 41
12.5
 71
    5
 72
    1
  1
200
  7
STANDARD
210
0
220
0
230
1
 50
0
 73
    2
 44
1
  0
LINE
  5
7F
100
AcDbEntity
  8
measure
  6
ByBlock
 62
    0
370
   -2
100
AcDbLine
 10
-100
 20
-1.5625
 11
-100
 21
-63.125
  0
LINE
  5
80
100
AcDbEntity
  8
measure
  6
ByBlock
 62
    0
370
   -2
100
AcDbLine
 10
100
 20
-1.5625
 11
100
 21
-63.125
  0
ENDBLK
  5
5C
330
5A
100
AcDbEntity
  8
0
100
AcDbBlockEnd
  0
BLOCK
  5
5E
330
5D
100
AcDbEntity
  8
0
100
AcDbBlockBegin
  2
*D3
 70
    1
 10
0
 20
0
  3
*D3
  1

  0
LINE
  5
81
100
AcDbEntity
  8
measure
  6
ByBlock
 62
    0
370
   -2
100
AcDbLine
 10
-12.17404150316785
 20
46
 11
-12.17404150316785
 21
100
  0
SOLID
  5
82
100
AcDbEntity
  8
measure
  6
ByBlock
 62
    0
370
   -2
100
AcDbTrace
 10
-12.17404150316785
 20
46
 30
0
 11
-13.21475314759995
 21
52.25
 31
0
 12
-11.13332985873575
 22
52.25
 32
0
 13
-11.13332985873575
 23
52.25
 33
0
  0
SOLID
  5
83
100
AcDbEntity
  8
measure
  6
ByBlock
 62
    0
370
   -2
100
AcDbTrace
 10
-12.17404150316785
 20
100
 30
0
 11
-11.13332985873575
 21
93.75
 31
0
 12
-13.21475314759995
 22
93.75
 32
0
 13
-13.21475314759995
 23
93.75
 33
0
  0
MTEXT
  5
84
100
AcDbEntity
  8
measure
  6
CONTINUOUS
 62
    0
370
   -2
100
AcDbMText
 10
-16.86154150316785
 20
73
 30
0
 40
6.25
 41
8.333333333333721
 71
    5
 72
    1
  1
54
  7
STANDARD
210
0
220
0
230
1
 50
90
 73
    2
 44
1
  0
LINE
  5
85
100
AcDbEntity
  8
measure
  6
ByBlock
 62
    0
370
   -2
100
AcDbLine
 10
-1.5625
 20
46
 11
-15.29904150316785
 21
46
  0
LINE
  5
86
100
AcDbEntity
  8
measure
  6
ByBlock
 62
    0
370
   -2
100
AcDbLine
 10
-1.562499999999982
 20
100
 11
-15.29904150316785
 21
100
  0
ENDBLK
  5
5F
330
5D
100
AcDbEntity
  8
0
100
AcDbBlockEnd
  0
BLOCK
  5
61
330
60
100
AcDbEntity
  8
0
100
AcDbBlockBegin
  2
*D8
 70
    1
 10
0
 20
0
  3
*D8
  1

  0
LINE
  5
87
100
AcDbEntity
  8
measure
  6
ByBlock
 62
    0
370
   -2
100
AcDbLine
 10
-22.58428657274788
 20
11.29214328637393
 11
22.58428657274787
 21
-11.29214328637394
  0
SOLID
  5
88
100
AcDbEntity
  8
measure
  6
ByBlock
 62
    0
370
   -2
100
AcDbTrace
 10
-22.58428657274788
 20
11.29214328637393
 30
0
 11
-16.52869623261325
 21
9.427899107269502
 31
0
 12
-17.45953702538356
 22
7.566217521728888
 32
0
 13
-17.45953702538356
 23
7.566217521728888
 33
0
  0
SOLID
  5
89
100
AcDbEntity
  8
measure
  6
ByBlock
 62
    0
370
   -2
100
AcDbTrace
 10
22.58428657274787
 20
-11.29214328637394
 30
0
 11
16.52869623261324
 21
-9.427899107269509
 31
0
 12
17.45953702538355
 22
-7.566217521728895
 32
0
 13
17.45953702538355
 23
-7.566217521728895
 33
0
  0
MTEXT
  5
8A
100
AcDbEntity
  8
measure
  6
CONTINUOUS
 62
    0
370
   -2
100
AcDbMText
 10
2.096313728906049
 20
4.192627457812097
 30
0
 40
6.25
 41
14.93055555555633
 71
    5
 72
    1
  1
50,5
  7
STANDARD
210
0
220
0
230
1
 50
333.434948822922
 73
    2
 44
1
  0
ENDBLK
  5
62
330
60
100
AcDbEntity
  8
0
100
AcDbBlockEnd
  0
BLOCK
  5
64
330
63
100
AcDbEntity
  8
0
100
AcDbBlockBegin
  2
*D2
 70
    1
 10
0
 20
0
  3
*D2
  1

  0
LINE
  5
8B
100
AcDbEntity
  8
measure
  6
ByBlock
 62
    0
370
   -2
100
AcDbLine
 10
180
 20
59.99999999999999
 11
180
 21
-60
  0
SOLID
  5
8C
100
AcDbEntity
  8
measure
  6
ByBlock
 62
    0
370
   -2
100
AcDbTrace
 10
180
 20
59.99999999999999
 30
0
 11
181.0407116444321
 21
53.74999999999999
 31
0
 12
178.9592883555679
 22
53.74999999999999
 32
0
 13
178.9592883555679
 23
53.74999999999999
 33
0
  0
SOLID
  5
8D
100
AcDbEntity
  8
measure
  6
ByBlock
 62
    0
370
   -2
100
AcDbTrace
 10
180
 20
-60
 30
0
 11
178.9592883555679
 21
-53.75
 31
0
 12
181.0407116444321
 22
-53.75
 32
0
 13
181.0407116444321
 23
-53.75
 33
0
  0
MTEXT
  5
8E
100
AcDbEntity
  8
measure
  6
CONTINUOUS
 62
    0
370
   -2
100
AcDbMText
 10
175.3125
 20
-2.978660491700179e-15
 30
0
 40
6.25
 41
11.11111111111111
 71
    5
 72
    1
  1
120
  7
STANDARD
210
0
220
0
230
1
 50
90
 73
    2
 44
1
  0
LINE
  5
8F
100
AcDbEntity
  8
measure
  6
ByBlock
 62
    0
370
   -2
100
AcDbLine
 10
151.5625
 20
60
 11
183.125
 21
59.99999999999999
  0
LINE
  5
90
100
AcDbEntity
  8
measure
  6
ByBlock
 62
    0
370
   -2
100
AcDbLine
 10
151.5625
 20
-60
 11
183.125
 21
-60
  0
ENDBLK
  5
65
330
63
100
AcDbEntity
  8
0
100
AcDbBlockEnd
  0
BLOCK
  5
67
330
66
100
AcDbEntity
  8
0
100
AcDbBlockBegin
  2
*D4
 70
    1
 10
0
 20
0
  3
*D4
  1

  0
SOLID
  5
91
100
AcDbEntity
  8
measure
  6
ByBlock
 62
    0
370
   -2
100
AcDbTrace
 10
38.27431353954081
 20
25.51620902636054
 30
0
 11
33.65128215330966
 21
21.18340836988231
 31
0
 12
32.49671624654892
 22
22.91525723002341
 32
0
 13
32.49671624654892
 23
22.91525723002341
 33
0
  0
LINE
  5
92
100
AcDbEntity
  8
measure
  6
ByBlock
 62
    0
370
   -2
100
AcDbLine
 10
0
 20
0
 11
38.27431353954081
 21
25.51620902636054
  0
MTEXT
  5
93
100
AcDbEntity
  8
measure
  6
CONTINUOUS
 62
    0
370
   -2
100
AcDbMText
 10
16.53699959996464
 20
16.65834026788891
 30
0
 40
6.25
 41
8.333333333333719
 71
    5
 72
    1
  1
46
  7
STANDARD
210
0
220
0
230
1
 50
33.69006752597978
 73
    2
 44
1
  0
ENDBLK
  5
68
330
66
100
AcDbEntity
  8
0
100
AcDbBlockEnd
  0
BLOCK
  5
6A
330
69
100
AcDbEntity
  8
0
100
AcDbBlockBegin
  2
*D11
 70
    1
 10
0
 20
0
  3
*D11
  1

  0
LINE
  5
94
100
AcDbEntity
  8
measure
  6
ByBlock
 62
    0
370
   -2
100
AcDbLine
 10
-130
 20
-80
 11
130
 21
-80
  0
SOLID
  5
95
100
AcDbEntity
  8
measure
  6
ByBlock
 62
    0
370
   -2
100
AcDbTrace
 10
-130
 20
-80
 30
0
 11
-123.75
 21
-78.95928835556791
 31
0
 12
-123.75
 22
-81.04071164443211
 32
0
 13
-123.75
 23
-81.04071164443211
 33
0
  0
SOLID
  5
96
100
AcDbEntity
  8
measure
  6
ByBlock
 62
    0
370
   -2
100
AcDbTrace
 10
130
 20
-80
 30
0
 11
123.75
 21
-81.04071164443211
 31
0
 12
123.75
 22
-78.95928835556789
 32
0
 13
123.75
 23
-78.95928835556789
 33
0
  0
MTEXT
  5
97
100
AcDbEntity
  8
measure
  6
CONTINUOUS
 62
    0
370
   -2
100
AcDbMText
 10
2.870265935501609e-16
 20
-75.3125
 30
0
 40
6.25
 41
12.50000000000039
 71
    5
 72
    1
  1
260
  7
STANDARD
210
0
220
0
230
1
 50
0
 73
    2
 44
1
  0
LINE
  5
98
100
AcDbEntity
  8
measure
  6
ByBlock
 62
    0
370
   -2
100
AcDbLine
 10
-130
 20
-1.5625
 11
-130
 21
-83.125
  0
LINE
  5
99
100
AcDbEntity
  8
measure
  6
ByBlock
 62
    0
370
   -2
100
AcDbLine
 10
130
 20
-1.5625
 11
130
 21
-83.125
  0
ENDBLK
  5
6B
330
69
100
AcDbEntity
  8
0
100
AcDbBlockEnd
  0
BLOCK
  5
6D
330
6C
100
AcDbEntity
  8
0
100
AcDbBlockBegin
  2
*D6
 70
    1
 10
0
 20
0
  3
*D6
  1

  0
LINE
  5
9A
100
AcDbEntity
  8
measure
  6
ByBlock
 62
    0
370
   -2
100
AcDbLine
 10
-112.4450793488833
 20
-12.44507934888323
 11
-87.55492065111675
 21
12.44507934888323
  0
SOLID
  5
9B
100
AcDbEntity
  8
measure
  6
ByBlock
 62
    0
370
   -2
100
AcDbTrace
 10
-103.6062445840514
 20
-3.606244584051392
 30
0
 11
-107.2897677054296
 21
-8.761556227505054
 31
0
 12
-108.7615562275051
 22
-7.28976770542957
 32
0
 13
-108.7615562275051
 23
-7.28976770542957
 33
0
  0
SOLID
  5
9C
100
AcDbEntity
  8
measure
  6
ByBlock
 62
    0
370
   -2
100
AcDbTrace
 10
-96.3937554159486
 20
3.606244584051392
 30
0
 11
-92.71023229457042
 21
8.761556227505052
 31
0
 12
-91.23844377249493
 22
7.289767705429567
 32
0
 13
-91.23844377249493
 23
7.289767705429567
 33
0
  0
MTEXT
  5
9D
100
AcDbEntity
  8
measure
  6
CONTINUOUS
 62
    0
370
   -2
100
AcDbMText
 10
-93.81576194287261
 20
12.81336413075123
 30
0
 40
6.25
 41
13.54166666666667
 71
    5
 72
    1
  1
10,2
  7
STANDARD
210
0
220
0
230
1
 50
44.99999999999995
 73
    2
 44
1
  0
ENDBLK
  5
6E
330
6C
100
AcDbEntity
  8
0
100
AcDbBlockEnd
  0
BLOCK
  5
70
330
6F
100
AcDbEntity
  8
0
100
AcDbBlockBegin
  2
*D1
 70
    1
 10
0
 20
0
  3
*D1
  1

  0
LINE
  5
9E
100
AcDbEntity
  8
measure
  6
ByBlock
 62
    0
370
   -2
100
AcDbLine
 10
-150
 20
120
 11
150
 21
120
  0
SOLID
  5
9F
100
AcDbEntity
  8
measure
  6
ByBlock
 62
    0
370
   -2
100
AcDbTrace
 10
-150
 20
120
 30
0
 11
-143.75
 21
121.0407116444321
 31
0
 12
-143.75
 22
118.9592883555679
 32
0
 13
-143.75
 23
118.9592883555679
 33
0
  0
SOLID
  5
A0
100
AcDbEntity
  8
measure
  6
ByBlock
 62
    0
370
   -2
100
AcDbTrace
 10
150
 20
120
 30
0
 11
143.75
 21
118.9592883555679
 31
0
 12
143.75
 22
121.0407116444321
 32
0
 13
143.75
 23
121.0407116444321
 33
0
  0
MTEXT
  5
A1
100
AcDbEntity
  8
measure
  6
CONTINUOUS
 62
    0
370
   -2
100
AcDbMText
 10
2.870265935501609e-16
 20
124.6875
 30
0
 40
6.25
 41
12.50000000000039
 71
    5
 72
    1
  1
300
  7
STANDARD
210
0
220
0
230
1
 50
0
 73
    2
 44
1
  0
LINE
  5
A2
100
AcDbEntity
  8
measure
  6
ByBlock
 62
    0
370
   -2
100
AcDbLine
 10
-150
 20
61.5625
 11
-150
 21
123.125
  0
LINE
  5
A3
100
AcDbEntity
  8
measure
  6
ByBlock
 62
    0
370
   -2
100
AcDbLine
 10
150
 20
61.5625
 11
150
 21
123.125
  0
ENDBLK
  5
71
330
6F
100
AcDbEntity
  8
0
100
AcDbBlockEnd
  0
BLOCK
  5
73
330
72
100
AcDbEntity
  8
0
100
AcDbBlockBegin
  2
*D7
 70
    1
 10
0
 20
0
  3
*D7
  1

  0
LINE
  5
A4
100
AcDbEntity
  8
measure
  6
ByBlock
 62
    0
370
   -2
100
AcDbLine
 10
80
 20
70
 11
60
 21
70
  0
SOLID
  5
A5
100
AcDbEntity
  8
measure
  6
ByBlock
 62
    0
370
   -2
100
AcDbTrace
 10
80
 20
70
 30
0
 11
73.75
 21
68.95928835556789
 31
0
 12
73.75
 22
71.04071164443211
 32
0
 13
73.75
 23
71.04071164443211
 33
0
  0
SOLID
  5
A6
100
AcDbEntity
  8
measure
  6
ByBlock
 62
    0
370
   -2
100
AcDbTrace
 10
60
 20
70
 30
0
 11
66.25
 21
71.04071164443209
 31
0
 12
66.25
 22
68.95928835556789
 32
0
 13
66.25
 23
68.95928835556789
 33
0
  0
MTEXT
  5
A7
100
AcDbEntity
  8
measure
  6
CONTINUOUS
 62
    0
370
   -2
100
AcDbMText
 10
70
 20
74.6875
 30
0
 40
6.25
 41
7.638888888888888
 71
    5
 72
    1
  1
20
  7
STANDARD
210
0
220
0
230
1
 50
360
 73
    2
 44
1
  0
ENDBLK
  5
74
330
72
100
AcDbEntity
  8
0
100
AcDbBlockEnd
  0
BLOCK
  5
76
330
75
100
AcDbEntity
  8
0
100
AcDbBlockBegin
  2
*D5
 70
    1
 10
0
 20
0
  3
*D5
  1

  0
LINE
  5
A8
100
AcDbEntity
  8
measure
  6
ByBlock
 62
    0
370
   -2
100
AcDbLine
 10
-143.0308657865102
 20
-11.03086578651012
 11
-120.9691342134898
 21
11.03086578651012
  0
SOLID
  5
A9
100
AcDbEntity
  8
measure
  6
ByBlock
 62
    0
370
   -2
100
AcDbTrace
 10
-134.1920310216783
 20
-2.192031021678297
 30
0
 11
-137.8755541430565
 21
-7.347342665131956
 31
0
 12
-139.347342665132
 22
-5.875554143056471
 32
0
 13
-139.347342665132
 23
-5.875554143056471
 33
0
  0
SOLID
  5
AA
100
AcDbEntity
  8
measure
  6
ByBlock
 62
    0
370
   -2
100
AcDbTrace
 10
-129.8079689783217
 20
2.192031021678297
 30
0
 11
-126.1244458569435
 21
7.347342665131954
 31
0
 12
-124.652657334868
 22
5.875554143056467
 32
0
 13
-124.652657334868
 23
5.875554143056467
 33
0
  0
MTEXT
  5
AB
100
AcDbEntity
  8
measure
  6
CONTINUOUS
 62
    0
370
   -2
100
AcDbMText
 10
-128.4575914448055
 20
10.17153462881829
 30
0
 40
6.25
 41
10.06944444444483
 71
    5
 72
    1
  1
6,2
  7
STANDARD
210
0
220
0
230
1
 50
44.9999999999999
 73
    2
 44
1
  0
ENDBLK
  5
77
330
75
100
AcDbEntity
  8
0
100
AcDbBlockEnd
  0
ENDSEC
  0
SECTION
  2
ENTITIES
  0
DIMENSION
  5
AC
100
AcDbEntity
  8
measure
  6
ByLayer
 62
  256
370
   -1
100
AcDbDimension
  2
*D1
 10
150
 20
120
 30
0
 11
2.870265935501609e-16
 21
124.6875
 31
0
 70
   32
 71
    5
 72
    0
  3
Standard
 53
0
210
0
220
0
230
1
100
AcDbAlignedDimension
 13
-150
 23
60
 33
0
 14
150
 24
60
 34
0
100
AcDbRotatedDimension
  0
DIMENSION
  5
AD
100
AcDbEntity
  8
measure
  6
ByLayer
 62
  256
370
   -1
100
AcDbDimension
  2
*D2
 10
180
 20
-60.00000000000001
 30
0
 11
175.3125
 21
-2.978660491700179e-15
 31
0
 70
   32
 71
    5
 72
    0
  3
Standard
 53
0
210
0
220
0
230
1
100
AcDbAlignedDimension
 13
150
 23
60
 33
0
 14
150
 24
-60
 34
0
 50
90
100
AcDbRotatedDimension
  0
CIRCLE
  5
AE
100
AcDbEntity
  8
L
  6
ByLayer
 62
  256
370
   -1
100
AcDbCircle
 10
-275
 20
15
 40
5
  0
CIRCLE
  5
AF
100
AcDbEntity
  8
L
  6
ByLayer
 62
  256
370
   -1
100
AcDbCircle
 10
-275
 20
-15
 40
5
  0
CIRCLE
  5
B0
100
AcDbEntity
  8
L
  6
ByLayer
 62
  256
370
   -1
100
AcDbCircle
 10
-310
 20
0
 40
5
  0
CIRCLE
  5
B1
100
AcDbEntity
  8
L
  6
ByLayer
 62
  256
370
   -1
100
AcDbCircle
 10
-345
 20
15
 40
5
  0
CIRCLE
  5
B2
100
AcDbEntity
  8
L
  6
ByLayer
 62
  256
370
   -1
100
AcDbCircle
 10
-345
 20
-15
 40
5
  0
CIRCLE
  5
B3
100
AcDbEntity
  8
L
  6
ByLayer
 62
  256
370
   -1
100
AcDbCircle
 10
-170
 20
40
 40
3.1
  0
CIRCLE
  5
B4
100
AcDbEntity
  8
L
  6
ByLayer
 62
  256
370
   -1
100
AcDbCircle
 10
-170
 20
-40
 40
3.1
  0
CIRCLE
  5
B5
100
AcDbEntity
  8
L
  6
ByLayer
 62
  256
370
   -1
100
AcDbCircle
 10
-170
 20
10
 40
3.1
  0
CIRCLE
  5
B6
100
AcDbEntity
  8
L
  6
ByLayer
 62
  256
370
   -1
100
AcDbCircle
 10
-170
 20
-10
 40
3.1
  0
ARC
  5
B7
100
AcDbEntity
  8
L
  6
ByLayer
 62
  256
370
   -1
100
AcDbCircle
 10
-170
 20
48.38812579192165
 40
10
100
AcDbArc
 50
0
 51
98.53076560994813
  0
LINE
  5
B8
100
AcDbEntity
  8
L
  6
ByLayer
 62
  256
370
   -1
100
AcDbLine
 10
-160
 20
48.38812579192165
 11
-160
 21
-48.38812579192165
  0
ARC
  5
B9
100
AcDbEntity
  8
L
  6
ByLayer
 62
  256
370
   -1
100
AcDbCircle
 10
-170
 20
-48.38812579192165
 40
10
100
AcDbArc
 50
261.4692343900519
 51
0
  0
LINE
  5
BA
100
AcDbEntity
  8
L
  6
ByLayer
 62
  256
370
   -1
100
AcDbLine
 10
-171.4834045293024
 20
-58.27748932060463
 11
-351.4834045293024
 21
-31.27748932060463
  0
ARC
  5
BB
100
AcDbEntity
  8
L
  6
ByLayer
 62
  256
370
   -1
100
AcDbCircle
 10
-350
 20
-21.38812579192166
 40
10
100
AcDbArc
 50
180
 51
261.4692343900519
  0
LINE
  5
BC
100
AcDbEntity
  8
L
  6
ByLayer
 62
  256
370
   -1
100
AcDbLine
 10
-360
 20
-21.38812579192166
 11
-360
 21
21.38812579192165
  0
LINE
  5
BD
100
AcDbEntity
  8
L
  6
ByLayer
 62
  256
370
   -1
100
AcDbLine
 10
-351.4834045293024
 20
31.27748932060463
 11
-171.4834045293024
 21
58.27748932060463
  0
ARC
  5
BE
100
AcDbEntity
  8
L
  6
ByLayer
 62
  256
370
   -1
100
AcDbCircle
 10
-350
 20
21.38812579192166
 40
10
100
AcDbArc
 50
98.53076560994813
 51
180
  0
ARC
  5
BF
100
AcDbEntity
  8
T
  6
ByLayer
 62
  256
370
   -1
100
AcDbCircle
 10
-140
 20
54.14491478884226
 40
10
100
AcDbArc
 50
118.7302607717202
 51
180
  0
ARC
  5
C0
100
AcDbEntity
  8
T
  6
ByLayer
 62
  256
370
   -1
100
AcDbCircle
 10
0
 20
-201.25
 40
301.25
100
AcDbArc
 50
61.26973922828013
 51
118.7302607717199
  0
ARC
  5
C1
100
AcDbEntity
  8
T
  6
ByLayer
 62
  256
370
   -1
100
AcDbCircle
 10
140
 20
54.14491478884226
 40
10
100
AcDbArc
 50
0
 51
61.2697392282804
  0
LINE
  5
C2
100
AcDbEntity
  8
T
  6
ByLayer
 62
  256
370
   -1
100
AcDbLine
 10
150
 20
54.14491478884226
 11
150
 21
-54.14491478884223
  0
ARC
  5
C3
100
AcDbEntity
  8
T
  6
ByLayer
 62
  256
370
   -1
100
AcDbCircle
 10
140
 20
-54.14491478884224
 40
10
100
AcDbArc
 50
298.7302607717191
 51
7.63333123551244e-14
  0
LINE
  5
C4
100
AcDbEntity
  8
T
  6
ByLayer
 62
  256
370
   -1
100
AcDbLine
 10
-150
 20
-54.14491478884221
 11
-150
 21
54.14491478884227
  0
ARC
  5
C5
100
AcDbEntity
  8
T
  6
ByLayer
 62
  256
370
   -1
100
AcDbCircle
 10
0
 20
201.25
 40
301.25
100
AcDbArc
 50
241.2697392282801
 51
298.7302607717199
  0
ARC
  5
C6
100
AcDbEntity
  8
T
  6
ByLayer
 62
  256
370
   -1
100
AcDbCircle
 10
-140
 20
-54.14491478884221
 40
10
100
AcDbArc
 50
180
 51
241.2697392282789
  0
CIRCLE
  5
C7
100
AcDbEntity
  8
T
  6
ByLayer
 62
  256
370
   -1
100
AcDbCircle
 10
0
 20
0
 40
46
  0
CIRCLE
  5
C8
100
AcDbEntity
  8
RingBottom
  6
ByLayer
 62
  256
370
   -1
100
AcDbCircle
 10
0
 20
0
 40
70
  0
CIRCLE
  5
C9
100
AcDbEntity
  8
RingTop
  6
ByLayer
 62
  256
370
   -1
100
AcDbCircle
 10
0
 20
0
 40
50
  0
DIMENSION
  5
CA
100
AcDbEntity
  8
measure
  6
ByLayer
 62
  256
370
   -1
100
AcDbDimension
  2
*D3
 10
-12.17404150316785
 20
100
 30
0
 11
-16.86154150316785
 21
73
 31
0
 70
   32
 71
    5
 72
    0
  3
Standard
 53
0
210
0
220
0
230
1
100
AcDbAlignedDimension
 13
0
 23
46
 33
0
 14
1.844624241215701e-14
 24
100
 34
0
 50
90
100
AcDbRotatedDimension
  0
CIRCLE
  5
CB
100
AcDbEntity
  8
T
  6
ByLayer
 62
  256
370
   -1
100
AcDbCircle
 10
-62.04288843976911
 20
10.93983519301661
 40
1.6
  0
CIRCLE
  5
CC
100
AcDbEntity
  8
T
  6
ByLayer
 62
  256
370
   -1
100
AcDbCircle
 10
-40.49561941025198
 20
48.26079991649561
 40
1.6
  0
CIRCLE
  5
CD
100
AcDbEntity
  8
T
  6
ByLayer
 62
  256
370
   -1
100
AcDbCircle
 10
-5.329070518200751e-15
 20
63
 40
1.6
  0
CIRCLE
  5
CE
100
AcDbEntity
  8
T
  6
ByLayer
 62
  256
370
   -1
100
AcDbCircle
 10
40.49561941025196
 20
48.26079991649562
 40
1.6
  0
CIRCLE
  5
CF
100
AcDbEntity
  8
T
  6
ByLayer
 62
  256
370
   -1
100
AcDbCircle
 10
62.04288843976911
 20
10.93983519301662
 40
1.6
  0
CIRCLE
  5
D0
100
AcDbEntity
  8
T
  6
ByLayer
 62
  256
370
   -1
100
AcDbCircle
 10
-62.04288843976911
 20
-10.93983519301661
 40
1.6
  0
CIRCLE
  5
D1
100
AcDbEntity
  8
T
  6
ByLayer
 62
  256
370
   -1
100
AcDbCircle
 10
-40.49561941025198
 20
-48.26079991649561
 40
1.6
  0
CIRCLE
  5
D2
100
AcDbEntity
  8
T
  6
ByLayer
 62
  256
370
   -1
100
AcDbCircle
 10
-8.881784197001252e-15
 20
-63
 40
1.6
  0
CIRCLE
  5
D3
100
AcDbEntity
  8
T
  6
ByLayer
 62
  256
370
   -1
100
AcDbCircle
 10
40.49561941025196
 20
-48.26079991649562
 40
1.6
  0
CIRCLE
  5
D4
100
AcDbEntity
  8
T
  6
ByLayer
 62
  256
370
   -1
100
AcDbCircle
 10
62.04288843976915
 20
-10.93983519301662
 40
1.6
  0
CIRCLE
  5
D5
100
AcDbEntity
  8
TopMountpoint
  6
ByLayer
 62
  256
370
   -1
100
AcDbCircle
 10
-70
 20
70
 40
10
  0
CIRCLE
  5
D6
100
AcDbEntity
  8
TopMountpoint
  6
ByLayer
 62
  256
370
   -1
100
AcDbCircle
 10
70
 20
70
 40
10
  0
CIRCLE
  5
D7
100
AcDbEntity
  8
TopMountpoint
  6
ByLayer
 62
  256
370
   -1
100
AcDbCircle
 10
-70
 20
-70
 40
10
  0
CIRCLE
  5
D8
100
AcDbEntity
  8
TopMountpoint
  6
ByLayer
 62
  256
370
   -1
100
AcDbCircle
 10
70
 20
-70
 40
10
  0
DIMENSION
  5
D9
100
AcDbEntity
  8
measure
  6
ByLayer
 62
  256
370
   -1
100
AcDbDimension
  2
*D4
 10
0
 20
0
 30
0
 11
16.53699959996464
 21
16.65834026788891
 31
0
 70
   36
 71
    5
  3
Standard
 53
0
210
0
220
0
230
1
100
AcDbRadialDimension
 15
38.27431353954081
 25
25.51620902636054
 35
0
 40
0
  0
CIRCLE
  5
DA
100
AcDbEntity
  8
TopMountpoint
  6
ByLayer
 62
  256
370
   -1
100
AcDbCircle
 10
0
 20
0
 40
46
  0
CIRCLE
  5
DB
100
AcDbEntity
  8
TopMountpoint
  6
ByLayer
 62
  256
370
   -1
100
AcDbCircle
 10
-62.04288843976911
 20
10.93983519301661
 40
1.6
  0
CIRCLE
  5
DC
100
AcDbEntity
  8
TopMountpoint
  6
ByLayer
 62
  256
370
   -1
100
AcDbCircle
 10
-40.49561941025198
 20
48.26079991649561
 40
1.6
  0
CIRCLE
  5
DD
100
AcDbEntity
  8
TopMountpoint
  6
ByLayer
 62
  256
370
   -1
100
AcDbCircle
 10
-5.329070518200751e-15
 20
63
 40
1.6
  0
CIRCLE
  5
DE
100
AcDbEntity
  8
TopMountpoint
  6
ByLayer
 62
  256
370
   -1
100
AcDbCircle
 10
40.49561941025196
 20
48.26079991649562
 40
1.6
  0
CIRCLE
  5
DF
100
AcDbEntity
  8
TopMountpoint
  6
ByLayer
 62
  256
370
   -1
100
AcDbCircle
 10
62.04288843976911
 20
10.93983519301662
 40
1.6
  0
CIRCLE
  5
E0
100
AcDbEntity
  8
TopMountpoint
  6
ByLayer
 62
  256
370
   -1
100
AcDbCircle
 10
-62.04288843976911
 20
-10.93983519301661
 40
1.6
  0
CIRCLE
  5
E1
100
AcDbEntity
  8
TopMountpoint
  6
ByLayer
 62
  256
370
   -1
100
AcDbCircle
 10
-40.49561941025198
 20
-48.26079991649561
 40
1.6
  0
CIRCLE
  5
E2
100
AcDbEntity
  8
TopMountpoint
  6
ByLayer
 62
  256
370
   -1
100
AcDbCircle
 10
-8.881784197001252e-15
 20
-63
 40
1.6
  0
CIRCLE
  5
E3
100
AcDbEntity
  8
TopMountpoint
  6
ByLayer
 62
  256
370
   -1
100
AcDbCircle
 10
40.49561941025196
 20
-48.26079991649562
 40
1.6
  0
CIRCLE
  5
E4
100
AcDbEntity
  8
TopMountpoint
  6
ByLayer
 62
  256
370
   -1
100
AcDbCircle
 10
62.04288843976915
 20
-10.93983519301662
 40
1.6
  0
CIRCLE
  5
E5
100
AcDbEntity
  8
T
  6
ByLayer
 62
  256
370
   -1
100
AcDbCircle
 10
-100
 20
0
 40
5.1
  0
CIRCLE
  5
E6
100
AcDbEntity
  8
T
  6
ByLayer
 62
  256
370
   -1
100
AcDbCircle
 10
100
 20
0
 40
5.1
  0
CIRCLE
  5
E7
100
AcDbEntity
  8
FIX
  6
ByLayer
 62
  256
370
   -1
100
AcDbCircle
 10
-100
 20
0
 40
5.1
  0
ARC
  5
E8
100
AcDbEntity
  8
FIX
  6
ByLayer
 62
  256
370
   -1
100
AcDbCircle
 10
0
 20
-0.858835573770875
 40
40
100
AcDbArc
 50
78.23171106797936
 51
101.7682889320207
  0
ARC
  5
E9
100
AcDbEntity
  8
FIX
  6
ByLayer
 62
  256
370
   -1
100
AcDbCircle
 10
-4.440892098500626e-15
 20
0.8588355737708739
 40
40
100
AcDbArc
 50
258.2317110679793
 51
281.7682889320207
  0
CIRCLE
  5
EA
100
AcDbEntity
  8
T
  6
ByLayer
 62
  256
370
   -1
100
AcDbCircle
 10
-132
 20
-50
 40
3.1
  0
CIRCLE
  5
EB
100
AcDbEntity
  8
T
  6
ByLayer
 62
  256
370
   -1
100
AcDbCircle
 10
-132
 20
0
 40
3.1
  0
CIRCLE
  5
EC
100
AcDbEntity
  8
T
  6
ByLayer
 62
  256
370
   -1
100
AcDbCircle
 10
-132
 20
50
 40
3.1
  0
DIMENSION
  5
ED
100
AcDbEntity
  8
measure
  6
ByLayer
 62
  256
370
   -1
100
AcDbDimension
  2
*D5
 10
-134.1920310216783
 20
-2.192031021678297
 30
0
 11
-135.3145630368119
 21
3.314563036811947
 31
0
 70
   35
 71
    5
 72
    0
  3
Standard
 53
0
210
0
220
0
230
1
100
AcDbDiametricDimension
 15
-129.8079689783217
 25
2.192031021678297
 35
0
 40
0
  0
CIRCLE
  5
EE
100
AcDbEntity
  8
T
  6
ByLayer
 62
  256
370
   -1
100
AcDbCircle
 10
132
 20
50
 40
3.1
  0
CIRCLE
  5
EF
100
AcDbEntity
  8
T
  6
ByLayer
 62
  256
370
   -1
100
AcDbCircle
 10
132
 20
0
 40
3.1
  0
CIRCLE
  5
F0
100
AcDbEntity
  8
T
  6
ByLayer
 62
  256
370
   -1
100
AcDbCircle
 10
132
 20
-50
 40
3.1
  0
DIMENSION
  5
F1
100
AcDbEntity
  8
measure
  6
ByLayer
 62
  256
370
   -1
100
AcDbDimension
  2
*D6
 10
-103.6062445840514
 20
-3.606244584051392
 30
0
 11
-103.3145630368119
 21
3.314563036811945
 31
0
 70
   35
 71
    5
 72
    0
  3
Standard
 53
0
210
0
220
0
230
1
100
AcDbDiametricDimension
 15
-96.3937554159486
 25
3.606244584051392
 35
0
 40
0
  0
ARC
  5
F2
100
AcDbEntity
  8
FIX
  6
ByLayer
 62
  256
370
   -1
100
AcDbCircle
 10
-100
 20
2.80293665983592
 40
15
100
AcDbArc
 50
101.7682889320206
 51
180
  0
LINE
  5
F3
100
AcDbEntity
  8
FIX
  6
ByLayer
 62
  256
370
   -1
100
AcDbLine
 10
-115
 20
2.80293665983592
 11
-115
 21
-2.802936659835924
  0
ARC
  5
F4
100
AcDbEntity
  8
FIX
  6
ByLayer
 62
  256
370
   -1
100
AcDbCircle
 10
-100
 20
-2.802936659835924
 40
15
100
AcDbArc
 50
180
 51
258.2317110679793
  0
LINE
  5
F5
100
AcDbEntity
  8
FIX
  6
ByLayer
 62
  256
370
   -1
100
AcDbLine
 10
-103.05931381168
 20
17.4876429559
 11
-8.158170164480071
 21
38.30038121573332
  0
LINE
  5
F6
100
AcDbEntity
  8
FIX
  6
ByLayer
 62
  256
370
   -1
100
AcDbLine
 10
-103.05931381168
 20
-17.4876429559
 11
-8.158170164480101
 21
-38.30038121573332
  0
CIRCLE
  5
F7
100
AcDbEntity
  8
FIX
  6
ByLayer
 62
  256
370
   -1
100
AcDbCircle
 10
100
 20
-2.131628207280301e-14
 40
5.1
  0
ARC
  5
F8
100
AcDbEntity
  8
FIX
  6
ByLayer
 62
  256
370
   -1
100
AcDbCircle
 10
100
 20
2.802936659835902
 40
15
100
AcDbArc
 50
360
 51
78.23171106797939
  0
LINE
  5
F9
100
AcDbEntity
  8
FIX
  6
ByLayer
 62
  256
370
   -1
100
AcDbLine
 10
115
 20
2.802936659835902
 11
115
 21
-2.802936659835955
  0
ARC
  5
FA
100
AcDbEntity
  8
FIX
  6
ByLayer
 62
  256
370
   -1
100
AcDbCircle
 10
100
 20
-2.802936659835955
 40
15
100
AcDbArc
 50
281.7682889320207
 51
360
  0
LINE
  5
FB
100
AcDbEntity
  8
FIX
  6
ByLayer
 62
  256
370
   -1
100
AcDbLine
 10
103.05931381168
 20
17.48764295589997
 11
8.158170164480076
 21
38.30038121573332
  0
LINE
  5
FC
100
AcDbEntity
  8
FIX
  6
ByLayer
 62
  256
370
   -1
100
AcDbLine
 10
103.05931381168
 20
-17.48764295590003
 11
8.158170164480088
 21
-38.30038121573332
  0
ARC
  5
FD
100
AcDbEntity
  8
TopMountpoint
  6
ByLayer
 62
  256
370
   -1
100
AcDbCircle
 10
-73.57548727505863
 20
73.57548727505865
 40
25
100
AcDbArc
 50
61.66144643918259
 51
208.3385535608175
  0
ARC
  5
FE
100
AcDbEntity
  8
TopMountpoint
  6
ByLayer
 62
  256
370
   -1
100
AcDbCircle
 10
3.857637417314162e-14
 20
210
 40
130
100
AcDbArc
 50
241.6614464391824
 51
298.3385535608175
  0
ARC
  5
FF
100
AcDbEntity
  8
TopMountpoint
  6
ByLayer
 62
  256
370
   -1
100
AcDbCircle
 10
73.57548727505868
 20
73.57548727505863
 40
25
100
AcDbArc
 50
331.6614464391824
 51
118.3385535608177
  0
ARC
  5
100
100
AcDbEntity
  8
TopMountpoint
  6
ByLayer
 62
  256
370
   -1
100
AcDbCircle
 10
-210
 20
0
 40
130
100
AcDbArc
 50
331.6614464391825
 51
28.33855356081751
  0
ARC
  5
101
100
AcDbEntity
  8
TopMountpoint
  6
ByLayer
 62
  256
370
   -1
100
AcDbCircle
 10
-73.57548727505865
 20
-73.57548727505865
 40
25
100
AcDbArc
 50
151.6614464391824
 51
298.3385535608176
  0
ARC
  5
102
100
AcDbEntity
  8
TopMountpoint
  6
ByLayer
 62
  256
370
   -1
100
AcDbCircle
 10
-1.285879139104721e-14
 20
-210
 40
130
100
AcDbArc
 50
61.66144643918249
 51
118.3385535608175
  0
ARC
  5
103
100
AcDbEntity
  8
TopMountpoint
  6
ByLayer
 62
  256
370
   -1
100
AcDbCircle
 10
210
 20
-2.571758278209442e-14
 40
130
100
AcDbArc
 50
151.6614464391825
 51
208.3385535608175
  0
ARC
  5
104
100
AcDbEntity
  8
TopMountpoint
  6
ByLayer
 62
  256
370
   -1
100
AcDbCircle
 10
73.57548727505861
 20
-73.57548727505863
 40
25
100
AcDbArc
 50
241.6614464391824
 51
28.33855356081759
  0
CIRCLE
  5
105
100
AcDbEntity
  8
MiddleMount
  6
ByLayer
 62
  256
370
   -1
100
AcDbCircle
 10
-40.495619410252
 20
48.26079991649561
 40
1.6
  0
CIRCLE
  5
106
100
AcDbEntity
  8
MiddleMount
  6
ByLayer
 62
  256
370
   -1
100
AcDbCircle
 10
0
 20
63
 40
1.6
  0
CIRCLE
  5
107
100
AcDbEntity
  8
MiddleMount
  6
ByLayer
 62
  256
370
   -1
100
AcDbCircle
 10
40.49561941025195
 20
48.26079991649562
 40
1.6
  0
CIRCLE
  5
108
100
AcDbEntity
  8
MiddleMount
  6
ByLayer
 62
  256
370
   -1
100
AcDbCircle
 10
-80
 20
0
 40
3.1
  0
CIRCLE
  5
109
100
AcDbEntity
  8
MiddleMount
  6
ByLayer
 62
  256
370
   -1
100
AcDbCircle
 10
80
 20
0
 40
3.1
  0
CIRCLE
  5
10A
100
AcDbEntity
  8
MiddleMount
  6
ByLayer
 62
  256
370
   -1
100
AcDbCircle
 10
-130
 20
50
 40
3.1
  0
CIRCLE
  5
10B
100
AcDbEntity
  8
MiddleMount
  6
ByLayer
 62
  256
370
   -1
100
AcDbCircle
 10
-80
 20
50
 40
3.1
  0
ARC
  5
10C
100
AcDbEntity
  8
MiddleMount
  6
ByLayer
 62
  256
370
   -1
100
AcDbCircle
 10
80
 20
0
 40
10
100
AcDbArc
 50
270
 51
0
  0
ARC
  5
10D
100
AcDbEntity
  8
MiddleMount
  6
ByLayer
 62
  256
370
   -1
100
AcDbCircle
 10
-130
 20
60
 40
10
100
AcDbArc
 50
90
 51
180
  0
LINE
  5
10E
100
AcDbEntity
  8
MiddleMount
  6
ByLayer
 62
  256
370
   -1
100
AcDbLine
 10
-140
 20
60
 11
-140
 21
44.14213562373094
  0
ARC
  5
10F
100
AcDbEntity
  8
MiddleMount
  6
ByLayer
 62
  256
370
   -1
100
AcDbCircle
 10
-130
 20
44.14213562373094
 40
10
100
AcDbArc
 50
180
 51
224.9999999999999
  0
LINE
  5
110
100
AcDbEntity
  8
MiddleMount
  6
ByLayer
 62
  256
370
   -1
100
AcDbLine
 10
-137.0710678118655
 20
37.07106781186547
 11
-92.92893218813454
 21
-7.071067811865461
  0
ARC
  5
111
100
AcDbEntity
  8
MiddleMount
  6
ByLayer
 62
  256
370
   -1
100
AcDbCircle
 10
-85.85786437626905
 20
0
 40
10
100
AcDbArc
 50
224.9999999999999
 51
270
  0
ARC
  5
112
100
AcDbEntity
  8
MiddleMount
  6
ByLayer
 62
  256
370
   -1
100
AcDbCircle
 10
0
 20
0
 40
46
100
AcDbArc
 50
0
 51
180
  0
LINE
  5
113
100
AcDbEntity
  8
MiddleMount
  6
ByLayer
 62
  256
370
   -1
100
AcDbLine
 10
-85.85786437626905
 20
-10
 11
-56
 21
-10
  0
LINE
  5
114
100
AcDbEntity
  8
MiddleMount
  6
ByLayer
 62
  256
370
   -1
100
AcDbLine
 10
-46
 20
0
 11
-46
 21
0
  0
ARC
  5
115
100
AcDbEntity
  8
MiddleMount
  6
ByLayer
 62
  256
370
   -1
100
AcDbCircle
 10
-56
 20
0
 40
10
100
AcDbArc
 50
270
 51
0
  0
LINE
  5
116
100
AcDbEntity
  8
MiddleMount
  6
ByLayer
 62
  256
370
   -1
100
AcDbLine
 10
46
 20
0
 11
46
 21
0
  0
LINE
  5
117
100
AcDbEntity
  8
MiddleMount
  6
ByLayer
 62
  256
370
   -1
100
AcDbLine
 10
80
 20
-10
 11
56
 21
-10
  0
ARC
  5
118
100
AcDbEntity
  8
MiddleMount
  6
ByLayer
 62
  256
370
   -1
100
AcDbCircle
 10
56
 20
-0
 40
10
100
AcDbArc
 50
180
 51
270
  0
LINE
  5
119
100
AcDbEntity
  8
MiddleMount
  6
ByLayer
 62
  256
370
   -1
100
AcDbLine
 10
30.00000000000001
 20
70
 11
-130
 21
70
  0
LINE
  5
11A
100
AcDbEntity
  8
MiddleMount
  6
ByLayer
 62
  256
370
   -1
100
AcDbLine
 10
90
 20
0
 11
90
 21
10
  0
ARC
  5
11B
100
AcDbEntity
  8
MiddleMount
  6
ByLayer
 62
  256
370
   -1
100
AcDbCircle
 10
30
 20
10
 40
60
100
AcDbArc
 50
0
 51
90
  0
DIMENSION
  5
11C
100
AcDbEntity
  8
measure
  6
ByLayer
 62
  256
370
   -1
100
AcDbDimension
  2
*D7
 10
80
 20
70
 30
0
 11
70
 21
74.6875
 31
0
 70
   35
 71
    5
 72
    0
  3
Standard
 53
0
210
0
220
0
230
1
100
AcDbDiametricDimension
 15
60
 25
70
 35
0
 40
0
  0
CIRCLE
  5
11D
100
AcDbEntity
  8
RingTop
  6
ByLayer
 62
  256
370
   -1
100
AcDbCircle
 10
0
 20
0
 40
25.25
  0
DIMENSION
  5
11E
100
AcDbEntity
  8
measure
  6
ByLayer
 62
  256
370
   -1
100
AcDbDimension
  2
*D8
 10
-22.58428657274788
 20
11.29214328637393
 30
0
 11
2.096313728906049
 21
4.192627457812097
 31
0
 70
   35
 71
    5
  3
Standard
 53
0
210
0
220
0
230
1
100
AcDbDiametricDimension
 15
22.58428657274787
 25
-11.29214328637394
 35
0
 40
0
  0
CIRCLE
  5
11F
100
AcDbEntity
  8
RingBottom
  6
ByLayer
 62
  256
370
   -1
100
AcDbCircle
 10
0
 20
0
 40
25.25
  0
DIMENSION
  5
120
100
AcDbEntity
  8
measure
  6
ByLayer
 62
  256
370
   -1
100
AcDbDimension
  2
*D9
 10
0
 20
0
 30
0
 11
33.75316708113117
 21
10.37768607365068
 31
0
 70
   36
 71
    5
 72
    0
  3
Standard
 53
0
210
0
220
0
230
1
100
AcDbRadialDimension
 15
69.04757466825006
 25
11.50792911137501
 35
0
 40
0
  0
CIRCLE
  5
121
100
AcDbEntity
  8
FIX
  6
ByLayer
 62
  256
370
   -1
100
AcDbCircle
 10
0
 20
0
 40
25.25
  0
CIRCLE
  5
122
100
AcDbEntity
  8
SimpleMountpoint
  6
ByLayer
 62
  256
370
   -1
100
AcDbCircle
 10
0
 20
0
 40
5.25
  0
CIRCLE
  5
123
100
AcDbEntity
  8
SimpleMountpoint
  6
ByLayer
 62
  256
370
   -1
100
AcDbCircle
 10
100
 20
0
 40
10
  0
ARC
  5
124
100
AcDbEntity
  8
SimpleMountpoint
  6
ByLayer
 62
  256
370
   -1
100
AcDbCircle
 10
0
 20
0
 40
20
100
AcDbArc
 50
90
 51
180
  0
LINE
  5
125
100
AcDbEntity
  8
SimpleMountpoint
  6
ByLayer
 62
  256
370
   -1
100
AcDbLine
 10
-20
 20
0
 11
-20
 21
0
  0
ARC
  5
126
100
AcDbEntity
  8
SimpleMountpoint
  6
ByLayer
 62
  256
370
   -1
100
AcDbCircle
 10
0
 20
-0
 40
20
100
AcDbArc
 50
180
 51
270
  0
LINE
  5
127
100
AcDbEntity
  8
SimpleMountpoint
  6
ByLayer
 62
  256
370
   -1
100
AcDbLine
 10
100
 20
-20
 11
0
 21
-20
  0
ARC
  5
128
100
AcDbEntity
  8
SimpleMountpoint
  6
ByLayer
 62
  256
370
   -1
100
AcDbCircle
 10
100
 20
-0
 40
20
100
AcDbArc
 50
270
 51
0
  0
LINE
  5
129
100
AcDbEntity
  8
SimpleMountpoint
  6
ByLayer
 62
  256
370
   -1
100
AcDbLine
 10
0
 20
20
 11
100
 21
20
  0
LINE
  5
12A
100
AcDbEntity
  8
SimpleMountpoint
  6
ByLayer
 62
  256
370
   -1
100
AcDbLine
 10
120
 20
0
 11
120
 21
0
  0
ARC
  5
12B
100
AcDbEntity
  8
SimpleMountpoint
  6
ByLayer
 62
  256
370
   -1
100
AcDbCircle
 10
100
 20
0
 40
20
100
AcDbArc
 50
0
 51
90
  0
CIRCLE
  5
12C
100
AcDbEntity
  8
T-HF
  6
ByLayer
 62
  256
370
   -1
100
AcDbCircle
 10
0
 20
0
 40
46
  0
CIRCLE
  5
12D
100
AcDbEntity
  8
T-HF
  6
ByLayer
 62
  256
370
   -1
100
AcDbCircle
 10
-62.04288843976911
 20
10.93983519301661
 40
1.6
  0
CIRCLE
  5
12E
100
AcDbEntity
  8
T-HF
  6
ByLayer
 62
  256
370
   -1
100
AcDbCircle
 10
-40.495619410252
 20
48.26079991649561
 40
1.6
  0
CIRCLE
  5
12F
100
AcDbEntity
  8
T-HF
  6
ByLayer
 62
  256
370
   -1
100
AcDbCircle
 10
0
 20
63
 40
1.6
  0
CIRCLE
  5
130
100
AcDbEntity
  8
T-HF
  6
ByLayer
 62
  256
370
   -1
100
AcDbCircle
 10
40.49561941025195
 20
48.26079991649562
 40
1.6
  0
CIRCLE
  5
131
100
AcDbEntity
  8
T-HF
  6
ByLayer
 62
  256
370
   -1
100
AcDbCircle
 10
62.04288843976911
 20
10.93983519301662
 40
1.6
  0
CIRCLE
  5
132
100
AcDbEntity
  8
T-HF
  6
ByLayer
 62
  256
370
   -1
100
AcDbCircle
 10
-62.04288843976911
 20
-10.93983519301661
 40
1.6
  0
CIRCLE
  5
133
100
AcDbEntity
  8
T-HF
  6
ByLayer
 62
  256
370
   -1
100
AcDbCircle
 10
-40.495619410252
 20
-48.26079991649561
 40
1.6
  0
CIRCLE
  5
134
100
AcDbEntity
  8
T-HF
  6
ByLayer
 62
  256
370
   -1
100
AcDbCircle
 10
0
 20
-63
 40
1.6
  0
CIRCLE
  5
135
100
AcDbEntity
  8
T-HF
  6
ByLayer
 62
  256
370
   -1
100
AcDbCircle
 10
40.49561941025195
 20
-48.26079991649562
 40
1.6
  0
CIRCLE
  5
136
100
AcDbEntity
  8
T-HF
  6
ByLayer
 62
  256
370
   -1
100
AcDbCircle
 10
62.04288843976917
 20
-10.93983519301662
 40
1.6
  0
CIRCLE
  5
137
100
AcDbEntity
  8
T-HF
  6
ByLayer
 62
  256
370
   -1
100
AcDbCircle
 10
130
 20
0
 40
5.1
  0
CIRCLE
  5
138
100
AcDbEntity
  8
T-HF
  6
ByLayer
 62
  256
370
   -1
100
AcDbCircle
 10
162
 20
50
 40
3.1
  0
CIRCLE
  5
139
100
AcDbEntity
  8
T-HF
  6
ByLayer
 62
  256
370
   -1
100
AcDbCircle
 10
162
 20
0
 40
3.1
  0
CIRCLE
  5
13A
100
AcDbEntity
  8
T-HF
  6
ByLayer
 62
  256
370
   -1
100
AcDbCircle
 10
162
 20
-50
 40
3.1
  0
CIRCLE
  5
13B
100
AcDbEntity
  8
T-HF
  6
ByLayer
 62
  256
370
   -1
100
AcDbCircle
 10
-130
 20
0
 40
5.1
  0
CIRCLE
  5
13C
100
AcDbEntity
  8
T-HF
  6
ByLayer
 62
  256
370
   -1
100
AcDbCircle
 10
-162
 20
-50
 40
3.1
  0
CIRCLE
  5
13D
100
AcDbEntity
  8
T-HF
  6
ByLayer
 62
  256
370
   -1
100
AcDbCircle
 10
-162
 20
0
 40
3.1
  0
CIRCLE
  5
13E
100
AcDbEntity
  8
T-HF
  6
ByLayer
 62
  256
370
   -1
100
AcDbCircle
 10
-162
 20
50
 40
3.1
  0
CIRCLE
  5
13F
100
AcDbEntity
  8
T-HF
  6
ByLayer
 62
  256
370
   -1
100
AcDbCircle
 10
-100
 20
0
 40
5.1
  0
CIRCLE
  5
140
100
AcDbEntity
  8
T-HF
  6
ByLayer
 62
  256
370
   -1
100
AcDbCircle
 10
100
 20
0
 40
5.1
  0
ARC
  5
141
100
AcDbEntity
  8
T-HF
  6
ByLayer
 62
  256
370
   -1
100
AcDbCircle
 10
-170
 20
-54.29336848964043
 40
10
100
AcDbArc
 50
180
 51
239.9023715954195
  0
LINE
  5
142
100
AcDbEntity
  8
T-HF
  6
ByLayer
 62
  256
370
   -1
100
AcDbLine
 10
-180
 20
54.29336848964042
 11
-180
 21
-54.29336848964043
  0
ARC
  5
143
100
AcDbEntity
  8
T-HF
  6
ByLayer
 62
  256
370
   -1
100
AcDbCircle
 10
-170
 20
54.29336848964042
 40
10
100
AcDbArc
 50
120.0976284045801
 51
180
  0
ARC
  5
144
100
AcDbEntity
  8
T-HF
  6
ByLayer
 62
  256
370
   -1
100
AcDbCircle
 10
0
 20
-239
 40
349
100
AcDbArc
 50
59.90237159541956
 51
120.0976284045804
  0
ARC
  5
145
100
AcDbEntity
  8
T-HF
  6
ByLayer
 62
  256
370
   -1
100
AcDbCircle
 10
170
 20
54.29336848964043
 40
10
100
AcDbArc
 50
0
 51
59.90237159541961
  0
LINE
  5
146
100
AcDbEntity
  8
T-HF
  6
ByLayer
 62
  256
370
   -1
100
AcDbLine
 10
180
 20
54.29336848964043
 11
180
 21
-54.29336848964044
  0
ARC
  5
147
100
AcDbEntity
  8
T-HF
  6
ByLayer
 62
  256
370
   -1
100
AcDbCircle
 10
2.926905849962174e-14
 20
239
 40
349
100
AcDbArc
 50
239.9023715954196
 51
300.0976284045805
  0
ARC
  5
148
100
AcDbEntity
  8
T-HF
  6
ByLayer
 62
  256
370
   -1
100
AcDbCircle
 10
170
 20
-54.29336848964042
 40
10
100
AcDbArc
 50
300.09762840458
 51
359.9999999999999
  0
DIMENSION
  5
149
100
AcDbEntity
  8
measure
  6
ByLayer
 62
  256
370
   -1
100
AcDbDimension
  2
*D10
 10
100
 20
-60
 30
0
 11
2.870265935501609e-16
 21
-55.3125
 31
0
 70
   32
 71
    5
  3
Standard
 53
0
210
0
220
0
230
1
100
AcDbAlignedDimension
 13
-100
 23
0
 33
0
 14
100
 24
0
 34
0
100
AcDbRotatedDimension
  0
DIMENSION
  5
14A
100
AcDbEntity
  8
measure
  6
ByLayer
 62
  256
370
   -1
100
AcDbDimension
  2
*D11
 10
130
 20
-80
 30
0
 11
2.870265935501609e-16
 21
-75.3125
 31
0
 70
   32
 71
    5
  3
Standard
 53
0
210
0
220
0
230
1
100
AcDbAlignedDimension
 13
-130
 23
0
 33
0
 14
130
 24
0
 34
0
100
AcDbRotatedDimension
  0
ENDSEC
  0
SECTION
  2
OBJECTS
  0
DICTIONARY
  5
C
330
0
100
AcDbDictionary
281
    1
  3
ACAD_GROUP
350
D
  0
DICTIONARY
  5
D
330
C
100
AcDbDictionary
281
    1
  0
ENDSEC
  0
EOF
